<mxfile host="app.diagrams.net" modified="2024-03-13T13:22:18.610Z" agent="Mozilla/5.0 (Macintosh; Intel Mac OS X 10_15_7) AppleWebKit/605.1.15 (KHTML, like Gecko) Version/17.2.1 Safari/605.1.15" version="24.0.5" etag="Th71dzVnnQEOreqEguML" type="github">
  <diagram name="Page-1" id="Tv3thxjLxRCLImLA9NgD">
    <mxGraphModel>
      <root>
        <mxCell id="0" />
        <mxCell id="1" parent="0" />
      </root>
    </mxGraphModel>
  </diagram>
</mxfile>
